<?xml version="1.0" encoding="UTF-8" standalone="no"?>
<svg
   xmlns:dc="http://purl.org/dc/elements/1.1/"
   xmlns:cc="http://creativecommons.org/ns#"
   xmlns:rdf="http://www.w3.org/1999/02/22-rdf-syntax-ns#"
   xmlns:svg="http://www.w3.org/2000/svg"
   xmlns="http://www.w3.org/2000/svg"
   xmlns:sodipodi="http://sodipodi.sourceforge.net/DTD/sodipodi-0.dtd"
   xmlns:inkscape="http://www.inkscape.org/namespaces/inkscape"
   width="81.491669mm"
   height="29.104166mm"
   viewBox="0 0 81.491669 29.104166"
   version="1.1"
   id="svg8"
   inkscape:version="1.0.2 (e86c8708, 2021-01-15)"
   sodipodi:docname="logo.svg">
  <defs
     id="defs2">
    <inkscape:perspective
       sodipodi:type="inkscape:persp3d"
       inkscape:vp_x="0 : 14.552083 : 1"
       inkscape:vp_y="0 : 1000 : 0"
       inkscape:vp_z="81.491669 : 14.552083 : 1"
       inkscape:persp3d-origin="40.745835 : 9.7013887 : 1"
       id="perspective897" />
  </defs>
  <sodipodi:namedview
     id="base"
     pagecolor="#ffffff"
     bordercolor="#666666"
     borderopacity="1.0"
     inkscape:pageopacity="0.0"
     inkscape:pageshadow="2"
     inkscape:zoom="1.2230769"
     inkscape:cx="183.69272"
     inkscape:cy="89.604672"
     inkscape:document-units="mm"
     inkscape:current-layer="g883"
     inkscape:document-rotation="0"
     showgrid="false"
     inkscape:pagecheckerboard="true"
     fit-margin-top="0"
     fit-margin-left="0"
     fit-margin-right="0"
     fit-margin-bottom="0"
     inkscape:window-width="1252"
     inkscape:window-height="943"
     inkscape:window-x="0"
     inkscape:window-y="25"
     inkscape:window-maximized="0" />
  <metadata
     id="metadata5">
    <rdf:RDF>
      <cc:Work
         rdf:about="">
        <dc:format>image/svg+xml</dc:format>
        <dc:type
           rdf:resource="http://purl.org/dc/dcmitype/StillImage" />
        <dc:title></dc:title>
      </cc:Work>
    </rdf:RDF>
  </metadata>
  <g
     inkscape:label="Layer 1"
     inkscape:groupmode="layer"
     id="layer1"
     transform="translate(1.436309,-2.078868)">
    <g
       id="g883"
       transform="translate(-30.994048,-49.892857)">
      <path
         style="fill:#fdfdfd;stroke-width:0.176389"
         d="m 68.401431,74.104231 0.66742,-0.441679 v 0.443475 0.443475 h 1.763889 1.763889 v -5.644444 -5.644444 h -1.852083 -1.852084 v 3.941411 c 0,4.45148 -0.0039,4.464715 -1.376943,4.648875 -0.556245,0.07461 -0.774897,0.0176 -1.072022,-0.27953 -0.357964,-0.357964 -0.373257,-0.535861 -0.373257,-4.342006 v -3.96875 h -1.852083 -1.852084 v 4.295206 c 0,4.413706 0.0755,5.018811 0.746441,5.982108 0.939465,1.348835 3.665379,1.640709 5.288917,0.566303 z m 21.287555,0.101354 c 1.499743,-0.765114 2.353889,-2.049392 2.698133,-4.056878 0.374236,-2.182365 -0.200367,-4.375739 -1.47599,-5.634173 -1.103583,-1.088708 -2.166548,-1.459979 -4.150331,-1.449622 -1.618149,0.0084 -2.784575,0.483849 -3.745835,1.526692 -0.864967,0.938379 -1.227225,1.761261 -1.444602,3.281461 -0.39407,2.755896 0.698047,5.304798 2.719192,6.346354 1.368229,0.705088 4.003462,0.698336 5.399433,-0.01383 z M 86.23194,71.692524 c -0.633543,-0.306094 -0.965708,-1.254022 -0.972349,-2.774878 -0.0041,-0.930139 0.08955,-1.569234 0.292492,-1.996906 0.590003,-1.243338 2.127887,-1.312946 2.824108,-0.127825 0.483208,0.822527 0.505031,3.317301 0.03667,4.19229 -0.445938,0.833104 -1.328283,1.119267 -2.180924,0.707319 z m -27.690811,2.677631 c 0.522935,-0.195656 1.258089,-0.621375 1.633677,-0.946046 l 0.682886,-0.590308 -0.789211,-0.985887 c -0.833625,-1.041366 -1.056144,-1.160236 -1.39887,-0.747278 -0.116535,0.140416 -0.559486,0.388053 -0.984336,0.550305 -0.828772,0.31651 -2.050401,0.243787 -2.559241,-0.152351 -0.316604,-0.246479 -0.87385,-1.023098 -0.87385,-1.217859 0,-0.07333 1.527969,-0.154891 3.395486,-0.18124 l 3.395487,-0.04791 -0.04464,-1.411111 c -0.06047,-1.911668 -0.416715,-3.036295 -1.26821,-4.003643 -0.975146,-1.107823 -2.135902,-1.581293 -3.867499,-1.577544 -2.113779,0.0046 -3.442963,0.614663 -4.413977,2.025983 -1.429845,2.078207 -1.439977,5.534179 -0.02197,7.491687 0.586056,0.809027 1.57377,1.529713 2.596485,1.894524 1.046069,0.373142 3.390165,0.320567 4.517778,-0.101327 z m -4.288945,-6.981271 c 0,-0.498345 0.694644,-1.275622 1.248781,-1.39733 0.697348,-0.153164 1.474521,0.174845 1.726949,0.728864 0.407298,0.893922 0.325464,0.949918 -1.38823,0.949918 -1.335803,0 -1.5875,-0.04462 -1.5875,-0.281452 z m -14.246485,2.813135 0.04718,-4.347483 2.469445,4.346929 2.469444,4.346928 1.896181,5.29e-4 1.89618,5.8e-4 V 66.96478 59.380058 H 46.935075 45.08602 l -0.04713,4.45382 -0.04713,4.453819 -2.543891,-4.453819 -2.543891,-4.45382 H 37.99405 36.084121 v 7.584722 7.584722 h 1.937196 1.937197 z m 37.923115,0.706277 0.04768,-3.641207 0.467253,-0.348681 c 0.339635,-0.253448 0.773215,-0.354951 1.5875,-0.37164 l 1.120247,-0.02296 0.05049,-1.719792 0.05048,-1.719791 -0.491456,-0.0266 c -1.344403,-0.07276 -1.93761,0.134802 -2.688404,0.940685 l -0.360692,0.387157 V 63.82304 63.260614 h -1.763889 -1.763889 v 5.644444 5.644444 h 1.848505 1.848504 z m 20.488692,1.216207 1.208571,-2.425002 1.214983,2.425002 1.21498,2.424999 h 2.20363 c 1.21199,0 2.20363,-0.02917 2.20363,-0.06483 0,-0.03566 -0.96139,-1.758567 -2.13641,-3.828692 -1.59543,-2.810785 -2.09453,-3.832826 -1.97102,-4.036212 0.49368,-0.812968 3.76184,-6.70043 3.85678,-6.947829 0.10049,-0.261891 -0.11226,-0.291881 -2.07071,-0.291881 h -2.1827 l -1.16443,2.336685 -1.164431,2.336685 -1.170914,-2.336685 -1.170915,-2.336685 h -2.209805 -2.209806 l 0.210281,0.396875 c 0.115654,0.218281 1.059467,1.912128 2.097361,3.764104 l 1.887079,3.36723 -2.091154,3.687935 c -1.150135,2.028365 -2.091154,3.747643 -2.091154,3.820619 0,0.07297 0.973705,0.132681 2.163791,0.132681 h 2.16379 z"
         id="path895"
         sodipodi:nodetypes="scccccccccsssscccsssssscsssssscssssssscsssssscsscsssssssssscccccccccccccccccccccccsscccssccccccccccccccsssssscccccccsscssscc" />
      <path
         style="fill:#e8cecd;stroke-width:0.176389"
         d="m 39.788295,70.051586 c 0,-2.506192 0.045,-4.511718 0.09999,-4.456725 0.119006,0.119005 0.101947,8.811503 -0.01753,8.930975 -0.04535,0.04536 -0.08246,-1.968059 -0.08246,-4.47425 z m 23.531158,3.748263 -0.336019,-0.396874 0.396875,0.336019 c 0.372964,0.315774 0.477175,0.45773 0.336019,0.45773 -0.03347,0 -0.212065,-0.178593 -0.396875,-0.396875 z m 5.220232,0.153889 c 0,-0.03663 0.138906,-0.175533 0.30868,-0.30868 0.279763,-0.219405 0.286002,-0.213166 0.0666,0.0666 -0.23043,0.29382 -0.375278,0.387258 -0.375278,0.242083 z m -8.290278,-0.727152 c 0.22785,-0.242535 0.453959,-0.440973 0.502466,-0.440973 0.04851,0 -0.09823,0.198438 -0.326078,0.440973 -0.22785,0.242534 -0.453959,0.440972 -0.502466,0.440972 -0.04851,0 0.09823,-0.198438 0.326078,-0.440972 z m 5.719367,-6.261806 c 0,-2.085798 0.02552,-2.93908 0.0567,-1.89618 0.03119,1.042899 0.03119,2.749461 0,3.792361 -0.03118,1.042899 -0.0567,0.189618 -0.0567,-1.896181 z m -15.58322,3.072107 c 0.0085,-0.205484 0.05026,-0.247279 0.106568,-0.106569 0.05095,0.12733 0.04469,0.279466 -0.01392,0.33808 -0.05861,0.05861 -0.100301,-0.04557 -0.09264,-0.231511 z m 10.619857,-0.867246 c 0.0014,-0.485069 0.03558,-0.662572 0.07612,-0.394449 0.04054,0.268122 0.03946,0.664997 -0.0024,0.881944 -0.04187,0.216948 -0.07504,-0.0024 -0.07372,-0.487495 z m 24.149217,0.352778 c 0.0036,-0.291042 0.04313,-0.38875 0.08785,-0.217129 0.04472,0.171621 0.04178,0.409746 -0.0065,0.529166 -0.04832,0.119421 -0.08491,-0.02099 -0.08131,-0.312037 z m 7.225407,0.08819 c 0,-0.242534 0.04004,-0.341753 0.08897,-0.220486 0.04893,0.121268 0.04893,0.319705 0,0.440973 -0.04893,0.121267 -0.08897,0.02205 -0.08897,-0.220487 z M 81.460556,68.993252 c 0.002,-0.388055 0.03808,-0.526036 0.08027,-0.306624 0.04219,0.219413 0.04059,0.536913 -0.0036,0.705556 -0.04415,0.168643 -0.07867,-0.01088 -0.07671,-0.398932 z m 3.67361,-0.720254 c 0.0085,-0.205483 0.05026,-0.24728 0.106568,-0.106569 0.05095,0.127331 0.04469,0.279467 -0.01392,0.338079 -0.05861,0.05861 -0.100302,-0.04557 -0.09264,-0.23151 z m 7.245869,-0.0735 c 0,-0.242534 0.04004,-0.341753 0.08897,-0.220486 0.04893,0.121268 0.04893,0.319705 0,0.440973 -0.04893,0.121267 -0.08897,0.02205 -0.08897,-0.220487 z M 79.266334,66.491509 c 0.12733,-0.05095 0.279467,-0.04469 0.338079,0.01393 0.05861,0.05861 -0.04557,0.100302 -0.23151,0.09264 -0.205484,-0.0085 -0.24728,-0.05026 -0.106569,-0.106569 z m 1.047309,0.0037 c 0.121268,-0.04893 0.319705,-0.04893 0.440972,0 0.121268,0.04893 0.02205,0.08897 -0.220486,0.08897 -0.242534,0 -0.341753,-0.04004 -0.220486,-0.08897 z m 0.80611,-1.117903 c 0,-0.63059 0.03201,-0.888559 0.07114,-0.573264 0.03913,0.315296 0.03913,0.831233 0,1.146528 -0.03913,0.315295 -0.07114,0.05733 -0.07114,-0.573264 z M 51.959129,64.407141 c 0.22785,-0.242534 0.453959,-0.440972 0.502466,-0.440972 0.04851,0 -0.09823,0.198438 -0.326078,0.440972 -0.22785,0.242535 -0.453959,0.440973 -0.502466,0.440973 -0.04851,0 0.09823,-0.198438 0.326078,-0.440973 z"
         id="path893" />
      <path
         style="fill:#d09a98;stroke-width:0.176389"
         d="m 69.082777,74.27022 c 0.0085,-0.205484 0.05026,-0.247279 0.106567,-0.106568 0.05095,0.127329 0.04469,0.279467 -0.01392,0.338079 -0.05861,0.05861 -0.100302,-0.04557 -0.09264,-0.231511 z m 5.180175,-5.365162 c 0,-3.152951 0.02392,-4.442795 0.05315,-2.866319 0.02923,1.576475 0.02923,4.156163 0,5.732638 -0.02923,1.576476 -0.05315,0.286632 -0.05315,-2.866319 z m -20.033598,1.186617 c 0.07517,-0.07496 1.63903,-0.114481 3.475241,-0.08782 l 3.338562,0.04848 -3.475239,0.08782 c -1.911382,0.0483 -3.413736,0.02648 -3.338564,-0.04848 z m 38.150681,-1.186617 c 0,-0.242535 0.04004,-0.341754 0.08897,-0.220486 0.04893,0.121267 0.04893,0.319705 0,0.440972 -0.04893,0.121267 -0.08897,0.02205 -0.08897,-0.220486 z M 50.399479,68.199502 c 0,-0.242534 0.04004,-0.341753 0.08897,-0.220486 0.04893,0.121268 0.04893,0.319705 0,0.440973 -0.04893,0.121267 -0.08897,0.02205 -0.08897,-0.220487 z m 4.520076,-0.483024 c 0.512576,-0.03574 1.306326,-0.03537 1.763889,8.29e-4 0.457563,0.0362 0.03818,0.06545 -0.931954,0.06499 -0.970139,-4.59e-4 -1.34451,-0.03008 -0.831935,-0.06582 z M 81.104218,63.78978 c 0,-0.339548 0.0363,-0.478455 0.08067,-0.30868 0.04437,0.169774 0.04437,0.447587 0,0.617361 -0.04437,0.169774 -0.08067,0.03087 -0.08067,-0.308681 z"
         id="path891" />
      <path
         style="fill:#c17b78;stroke-width:0.176389"
         d="m 55.101056,74.605398 c 0.12733,-0.05095 0.279465,-0.04469 0.338079,0.01392 0.05861,0.05861 -0.04557,0.100302 -0.23151,0.09264 -0.205485,-0.0085 -0.24728,-0.05026 -0.106569,-0.106567 z m 30.868056,0 c 0.12733,-0.05095 0.279467,-0.04469 0.338079,0.01392 0.05861,0.05861 -0.04557,0.100302 -0.23151,0.09264 -0.205484,-0.0085 -0.24728,-0.05026 -0.106569,-0.106567 z M 36.165074,66.96478 c 0,-4.220104 0.02302,-5.94651 0.05116,-3.836458 0.02814,2.110052 0.02814,5.562864 0,7.672916 -0.02814,2.110052 -0.05116,0.383646 -0.05116,-3.836458 z m 36.333989,1.940278 c 0,-3.152951 0.02392,-4.442795 0.05315,-2.866319 0.02923,1.576475 0.02923,4.156163 0,5.732638 -0.02923,1.576476 -0.05315,0.286632 -0.05315,-2.866319 z m 5.287243,2.116667 c 0,-1.988785 0.02573,-2.802379 0.05717,-1.807987 0.03144,0.994393 0.03144,2.62158 0,3.615973 -0.03144,0.994392 -0.05717,0.180798 -0.05717,-1.807986 z m -21.461552,0.941514 c 0.121267,-0.04893 0.319705,-0.04893 0.440972,0 0.121267,0.04893 0.02205,0.08897 -0.220486,0.08897 -0.242535,0 -0.341754,-0.04004 -0.220486,-0.08897 z m 10.947135,-0.0037 c 0.12733,-0.05095 0.279466,-0.04469 0.33808,0.01392 0.05861,0.05861 -0.04557,0.100302 -0.231511,0.09264 -0.205484,-0.0085 -0.247279,-0.05026 -0.106569,-0.106567 z m 19.579168,0 c 0.127329,-0.05095 0.279467,-0.04469 0.338079,0.01392 0.05861,0.05861 -0.04557,0.100302 -0.231511,0.09264 -0.205484,-0.0085 -0.247279,-0.05026 -0.106568,-0.106567 z m 1.091406,-0.298887 c 0,-0.03663 0.138906,-0.175534 0.30868,-0.308681 0.279764,-0.219405 0.286003,-0.213166 0.0666,0.0666 -0.230429,0.293819 -0.375278,0.387258 -0.375278,0.242083 z M 58.485518,71.307905 c 0,-0.03663 0.138906,-0.175533 0.30868,-0.308681 0.279764,-0.219404 0.286002,-0.213166 0.0666,0.0666 -0.23043,0.29382 -0.375278,0.387258 -0.375278,0.242083 z m 10.482578,-4.078541 c 1.24e-4,-2.23132 0.0254,-3.11981 0.05617,-1.974424 0.03077,1.145387 0.03067,2.971012 -1.77e-4,4.056945 -0.0309,1.085933 -0.05607,0.148798 -0.05595,-2.082521 z m -18.562081,1.763888 c 0.0036,-0.291041 0.04313,-0.388749 0.08785,-0.217129 0.04472,0.171621 0.04178,0.409746 -0.0065,0.529167 -0.04833,0.119421 -0.08492,-0.021 -0.08132,-0.312038 z m 38.432318,-0.0147 c 0.0085,-0.205483 0.05026,-0.24728 0.106567,-0.106568 0.05095,0.12733 0.04469,0.279466 -0.01392,0.338078 -0.05861,0.05861 -0.100301,-0.04557 -0.09264,-0.23151 z M 88.096352,66.30332 c -0.219405,-0.279763 -0.213166,-0.286002 0.0666,-0.0666 0.169774,0.133146 0.308681,0.272053 0.308681,0.308681 0,0.145174 -0.144849,0.05173 -0.375278,-0.242084 z m -1.245295,-0.517369 c 0.127329,-0.05095 0.279467,-0.04469 0.338079,0.01393 0.05861,0.05861 -0.04557,0.100302 -0.231511,0.09264 -0.205484,-0.0085 -0.247279,-0.05026 -0.106568,-0.106568 z m -3.759289,-1.290617 c 0.175594,-0.194028 0.358948,-0.352778 0.407455,-0.352778 0.04851,0 -0.05547,0.15875 -0.231066,0.352778 -0.175593,0.194028 -0.358948,0.352778 -0.407455,0.352778 -0.04851,0 0.05547,-0.15875 0.231066,-0.352778 z m -5.542324,-0.63206 c 0.0085,-0.205483 0.05026,-0.24728 0.106567,-0.106569 0.05095,0.127331 0.04469,0.279467 -0.01392,0.338079 -0.05861,0.05861 -0.100302,-0.04557 -0.09264,-0.23151 z M 56.688556,63.14012 c 0.12733,-0.05095 0.279465,-0.04469 0.338079,0.01393 0.05861,0.05861 -0.04557,0.100302 -0.23151,0.09264 -0.205485,-0.0085 -0.24728,-0.05026 -0.106569,-0.106569 z"
         id="path889" />
      <path
         style="fill:#ad4e4b;stroke-width:0.176389"
         d="m 54.602745,74.496778 c -1.627915,-0.367512 -2.771015,-1.257981 -3.547363,-2.763381 -0.312331,-0.605638 -0.422481,-1.160166 -0.476701,-2.399863 -0.125155,-2.861549 0.715811,-4.616147 2.698469,-5.630116 0.907126,-0.463921 1.218117,-0.530049 2.461867,-0.523476 1.759166,0.0093 2.590649,0.282524 3.549527,1.166388 1.023564,0.943487 1.491781,2.115515 1.616948,4.047489 l 0.101688,1.569572 h -3.477579 -3.477579 l 0.120944,0.396875 c 0.246327,0.808313 0.781001,1.292806 1.710815,1.550249 0.811717,0.224744 1.916106,-0.03075 2.702153,-0.62513 l 0.541389,-0.409377 0.516944,0.637723 c 1.050539,1.295984 1.035726,1.254515 0.609967,1.707715 -1.03015,1.096544 -3.737351,1.70746 -5.651489,1.275332 z m 2.855972,-7.267414 c -0.174921,-1.63362 -2.482,-1.902959 -3.124687,-0.364792 -0.14203,0.339924 -0.258235,0.702843 -0.258235,0.806486 0,0.12423 0.586021,0.171239 1.719792,0.137957 l 1.719792,-0.05049 z m 7.383246,7.289431 c -0.934923,-0.268244 -1.523219,-0.771568 -1.975681,-1.690316 -0.392133,-0.796247 -0.414904,-1.047266 -0.471905,-5.20224 l -0.05989,-4.365625 h 1.779684 1.779683 v 3.892151 c 0,2.237378 0.07442,4.031202 0.175034,4.219208 0.260871,0.48744 1.244558,0.763192 1.871806,0.524713 1.145242,-0.43542 1.12816,-0.364337 1.12816,-4.694661 v -3.941411 h 1.675695 1.675694 v 5.644444 5.644444 h -1.5875 c -1.545502,0 -1.5875,-0.01088 -1.5875,-0.411573 0,-0.624576 -0.167201,-0.67128 -0.771423,-0.215482 -0.973765,0.734566 -2.357952,0.961848 -3.631854,0.596348 z m 20.868078,0.0234 c -1.47743,-0.292297 -2.83188,-1.297878 -3.479063,-2.582949 -0.51835,-1.029257 -0.735536,-2.907154 -0.49706,-4.297839 0.272173,-1.587196 0.701073,-2.416966 1.70698,-3.302401 1.817443,-1.599775 5.088037,-1.653105 7.037462,-0.114752 2.063528,1.628394 2.518844,5.989773 0.876404,8.394897 -1.089598,1.595563 -3.3489,2.357256 -5.644723,1.903044 z m 1.979852,-2.720373 c 0.838216,-0.350229 1.178421,-1.201043 1.171258,-2.929181 -0.0072,-1.740771 -0.341492,-2.557651 -1.19205,-2.913036 -1.517308,-0.633972 -2.54886,0.535392 -2.54886,2.889378 0,1.624221 0.386108,2.63585 1.129552,2.959506 0.6933,0.301825 0.701872,0.301784 1.4401,-0.0067 z M 36.260517,66.96478 v -7.584722 h 1.754034 1.754035 l 2.611591,4.605187 2.61159,4.605187 0.04704,-4.611325 0.04704,-4.611325 1.805045,0.05024 1.805046,0.05024 0.04599,7.540624 0.04599,7.540625 h -1.82481 -1.824809 l -2.630904,-4.630208 -2.630904,-4.630208 -0.04703,4.630208 -0.04702,4.630208 H 38.02148 36.26052 Z m 38.100001,1.940278 v -5.644444 h 1.5875 c 1.527904,0 1.587601,0.0149 1.590201,0.396875 0.0014,0.218281 0.07233,0.506817 0.15743,0.641191 0.124347,0.196344 0.192499,0.173742 0.347086,-0.11511 0.272341,-0.508872 1.650444,-1.134358 2.350941,-1.067032 l 0.581426,0.05588 0.05045,1.611334 0.05045,1.611333 -1.26234,0.07133 c -1.115368,0.06302 -1.311202,0.128137 -1.682044,0.559266 -0.411678,0.478603 -0.419707,0.555243 -0.419707,4.005879 v 3.517942 h -1.675694 -1.675695 z"
         id="path887" />
      <path
         style="fill:#010101;stroke-width:0.176389"
         d="m 93.037594,74.240822 c 0.09276,-0.169775 1.048051,-1.851863 2.122872,-3.737974 1.07482,-1.886111 1.954219,-3.503195 1.954219,-3.59352 0,-0.09033 -0.912812,-1.783792 -2.028472,-3.763258 -1.11566,-1.979467 -2.028472,-3.636601 -2.028472,-3.682521 0,-0.04592 0.912283,-0.08349 2.027294,-0.08349 h 2.027296 l 1.258951,2.513109 1.258951,2.513108 1.252907,-2.513108 1.25291,-2.513109 h 1.98724 c 1.2002,0 1.98723,0.06949 1.98723,0.175459 0,0.0965 -0.9147,1.791607 -2.03266,3.766898 l -2.03266,3.591439 2.04415,3.568749 c 1.12428,1.962811 2.08715,3.680832 2.13972,3.817824 0.079,0.20589 -0.26754,0.249075 -1.99872,0.249075 h -2.0943 l -1.25291,-2.513107 -1.252907,-2.51311 -1.258951,2.51311 -1.258951,2.513107 h -2.121696 c -1.967318,0 -2.109424,-0.02246 -1.953041,-0.30868 z"
         id="path885" />
    </g>
  </g>
</svg>
